/* XPM */
static char *_39dbeb8fa484842b5aca7136331a30fV19tmj2gTFFdzZS2[] = {
/* columns rows colors chars-per-pixel */
"32 32 48 1 ",
"  c None",
". c #000035",
"X c #3E324C",
"o c #3D344D",
"O c #3F3850",
"+ c #3D3D5A",
"@ c #403C57",
"# c #403F58",
"$ c #45415D",
"% c #41445C",
"& c #48435F",
"* c #474766",
"= c #484361",
"- c #414864",
"; c #494962",
": c #4B4C63",
"> c #484768",
", c #4C5067",
"< c #626D78",
"1 c #566482",
"2 c #657D96",
"3 c #657E96",
"4 c #778385",
"5 c #668098",
"6 c #6B889D",
"7 c #6E889F",
"8 c #6E8B9E",
"9 c #7B8F98",
"0 c #708EA0",
"q c #7190A1",
"w c #7793A4",
"e c #7A98A8",
"r c #7C99AC",
"t c #808E94",
"y c #88A4AE",
"u c #83A1B1",
"i c #88A4B1",
"p c #89A6B2",
"a c #89A6B3",
"s c #89A7B4",
"d c #8BA9B6",
"f c #8CA8B4",
"g c #8DAAB6",
"h c #90AEB9",
"j c #95B0B8",
"k c #9CB9BF",
"l c #9DBABF",
"z c #B2CFCE",
/* pixels */
"                                ",
"                                ",
"                                ",
"                                ",
"                                ",
"                                ",
"                                ",
"                                ",
"                                ",
"                                ",
"                                ",
"                                ",
"                                ",
"                 O              ",
"               4<               ",
"              .t9+              ",
"             -kjyw1             ",
"            %rzkha6;            ",
"            %udafa8:            ",
"            @7dfae5&            ",
"             >3q83*o            ",
"              $,,=X             ",
"                                ",
"                                ",
"                                ",
"                                ",
"                                ",
"                                ",
"                                ",
"                                ",
"                                ",
"                                "
};
