/* XPM */
static char *_be980cb011e420bfce31faf84f613b2tyFPEidkEQns6ttg[] = {
/* columns rows colors chars-per-pixel */
"32 32 188 2 ",
"   c None",
".  c #0C000E",
"X  c #0E0313",
"o  c #100514",
"O  c #110814",
"+  c #120B1B",
"@  c #17121C",
"#  c #190D2C",
"$  c #1B0B31",
"%  c #16133E",
"&  c #141224",
"*  c #201833",
"=  c #1A293C",
"-  c #182539",
";  c #2C3B3D",
":  c #283237",
">  c #2C3233",
",  c #412824",
"<  c #52493B",
"1  c #191B45",
"2  c #171A48",
"3  c #1F1451",
"4  c #24134D",
"5  c #2F155D",
"6  c #1C2C43",
"7  c #1D244E",
"8  c #1B2946",
"9  c #1E3345",
"0  c #1F334B",
"q  c #1E2751",
"w  c #1F375D",
"e  c #223543",
"r  c #233A4B",
"t  c #273B46",
"y  c #253153",
"u  c #20355F",
"i  c #242E52",
"p  c #35196F",
"a  c #331C7C",
"s  c #1A2865",
"d  c #2C2867",
"f  c #312065",
"g  c #24367A",
"h  c #453A53",
"j  c #2C4145",
"k  c #2D4348",
"l  c #314542",
"z  c #2D425E",
"x  c #31455F",
"c  c #32565D",
"v  c #33585E",
"b  c #2E555E",
"n  c #2E4360",
"m  c #274F66",
"M  c #304662",
"N  c #324766",
"B  c #2B586C",
"V  c #284678",
"C  c #2E5D70",
"Z  c #345A61",
"A  c #39676B",
"S  c #45447A",
"D  c #436D64",
"F  c #426263",
"G  c #457165",
"H  c #9C5F37",
"J  c #A27F68",
"K  c #5B957D",
"L  c #588E75",
"P  c #66997D",
"I  c #AE8352",
"U  c #BBAB7A",
"Y  c #321D81",
"T  c #1F338B",
"R  c #332185",
"E  c #272E9A",
"W  c #3A239A",
"Q  c #2035A0",
"!  c #2A38AD",
"~  c #2E30B6",
"^  c #3939B1",
"/  c #442794",
"(  c #40339E",
")  c #4237A2",
"_  c #36459A",
"`  c #2F748E",
"'  c #32748E",
"]  c #367C95",
"[  c #357A96",
"{  c #264CA7",
"}  c #334FA4",
"|  c #3554A9",
" . c #3050A6",
".. c #2853B4",
"X. c #3846BD",
"o. c #337BAE",
"O. c #4F4E9F",
"+. c #524C9C",
"@. c #49528B",
"#. c #4D54AA",
"$. c #5050A0",
"%. c #4558B6",
"&. c #5161AE",
"*. c #5C6BB3",
"=. c #3157CC",
"-. c #3359CD",
";. c #3656C1",
":. c #396CC6",
">. c #3760CF",
",. c #3A6DCA",
"<. c #3C64C4",
"1. c #326ADB",
"2. c #3C71D7",
"3. c #436ECA",
"4. c #4571C8",
"5. c #37829A",
"6. c #39849C",
"7. c #3C8BBB",
"8. c #3A87BB",
"9. c #3F9CB6",
"0. c #5C9A82",
"q. c #5C9C89",
"w. c #599586",
"e. c #639A91",
"r. c #5EA18B",
"t. c #6EBB98",
"y. c #409FBC",
"u. c #6297A7",
"i. c #4BA5AE",
"p. c #4BA5B2",
"a. c #4CABBB",
"s. c #4DA9B5",
"d. c #4FB1BF",
"f. c #51B1BB",
"g. c #64B7A3",
"h. c #65B9A6",
"j. c #65B2AC",
"k. c #66BCA9",
"l. c #6CA8BC",
"z. c #6EBEBB",
"x. c #6DA3AC",
"c. c #72C29D",
"v. c #6BC6AE",
"b. c #6DC8AF",
"n. c #75CFAB",
"m. c #77CCA6",
"M. c #78D2AB",
"N. c #77D1AB",
"B. c #6DCAB2",
"V. c #3C8CC3",
"C. c #3B85DD",
"Z. c #3B8ED9",
"A. c #4C8CC7",
"S. c #4692D4",
"D. c #4CB2C4",
"F. c #50B4C2",
"G. c #52BDDE",
"H. c #57B2D6",
"J. c #66A7CE",
"K. c #528CFC",
"L. c #6885E7",
"P. c #46B1EB",
"I. c #52BCE2",
"U. c #4EA4FF",
"Y. c #46A1EC",
"T. c #59D0DF",
"R. c #7BCDC3",
"E. c #75D9CD",
"W. c #63D4D4",
"Q. c #66DBDA",
"!. c #70DFD4",
"~. c #6CD0CD",
"^. c #6BE2DB",
"/. c #71E1D1",
"(. c #71E1D8",
"). c #7DE7C8",
"_. c #5ACAEF",
"`. c #75E9E0",
"'. c #AD938E",
"]. c #86B38C",
"[. c #C2BB88",
"{. c #87EBBC",
"}. c #A2EBB7",
"|. c #87EEC0",
" X c #88EDC8",
".X c #84F4CE",
"XX c #8BF7C8",
"oX c #87F8D2",
/* pixels */
"                X X             X o                             ",
"                ; ;             t ;                             ",
"            . ; 0.0.t X     X ; 0.0.; X     o o                 ",
"            ; D B.h.k X     ; G n.N.G ;     ; t                 ",
"        X t K n.W.p.r X . ; 0.m.{.|.n.w.e t 0.0.; .             ",
"        X j g.`._.8.0 + = F ].}. X X}.t.> t h.B.G ;             ",
"        X t i._.U.<.8 - ` x.U [.R.R.[.I , e p.Q.B.P t o         ",
"        X 0 8.Y.2.} z c 5.u.'.'.J.J.I H < v ] F.!.g.l o         ",
"        . q ,.3.T x 0.q.c M *.L.K.4.h < 0.q.c C f.p.r o         ",
"        ; N | | x G B.B.G u } -.;.| u G M.t.; 0 o.y.y o         ",
"    X j q.q.M x 0.b.W.W.v.0.z 2 3 x w.M.XXt.; 2 >.,.q o         ",
"    o j h.h.; ; g./.a.d./.v.D ; ; G M.oXoXv.D n | } 1 +         ",
"    o r s.s.t e p.F.C B a.W.v.t.t.m.{..XQ.W.v.e.M 1 & +         ",
"    o 6 ' 6.v v 5.' - 8 o.I.(..XXXXX.X~.p.f.).t.l o o +         ",
"    + & = v r.r.c % + - { C.T.Q..X.X^.s.B A M.c.l .             ",
"    + o o t k.B.D > @ % E =.C.G././.G.o.8 ; g.h.t o             ",
"        o r p.Q.B.L : $ a ^ -.C.G.G.C.{ 1 e p.p.r X             ",
"        o 9 ' d.!.B.A i f Y ! -.Z.Z...T u B 5.[ 0 o             ",
"            6 C D.T.D.[ y 4 a ^ -...s w [ 6.m 6                 ",
"            . 6 ' 9.p.' - * S #.X.E 3 y [ 5.e .                 ",
"                0 r r 8 & : e.x.#.W a f y t                     ",
"                X o o + : F j.J.$./ +.S * .                     ",
"                    X : K j.A.<.W $.x.e.; .                     ",
"                    X l t.E.4.~ W $.J.k.D ;                     ",
"                    X l c.R.&.W / ) <.A.j.0.; X                 ",
"                    X j h.z.@.p p Y ~ >.~.g.j o                 ",
"                    X r i.a.n $ $ 4 Y %.H.p.r o                 ",
"                    X r 7.7.y . o $ 5 @.S.7.0 X                 ",
"                    . q ,.,.q O     $ d ,.,.7 X                 ",
"                    e V >...7 o     O 7 ;.-.V e                 ",
"                o 9 5.V.1.! 2 O     O 1 { 1.V.] 9 o             ",
"                o e y.P.1.Q 2 O     X 1 Q 1.P.9.r o             "
};
