/* XPM */
static char *_f9dee63c79448b0c470d52d12869b30LrbL47ceHsOfestt[] = {
/* columns rows colors chars-per-pixel */
"32 32 186 2 ",
"   c None",
".  c #0C000E",
"X  c #0E0313",
"o  c #100514",
"O  c #110814",
"+  c #120B1B",
"@  c #17121D",
"#  c #190D2C",
"$  c #1B0A31",
"%  c #16133E",
"&  c #141224",
"*  c #201731",
"=  c #1A293C",
"-  c #182539",
";  c #252D2F",
":  c #273133",
">  c #2C3B3D",
",  c #293538",
"<  c #333636",
"1  c #412824",
"2  c #52493B",
"3  c #191B45",
"4  c #17184C",
"5  c #191D4A",
"6  c #161944",
"7  c #24134D",
"8  c #2F155D",
"9  c #1C2C43",
"0  c #1D244E",
"q  c #1B2946",
"w  c #1E3345",
"e  c #1F324B",
"r  c #1E2751",
"t  c #1F345E",
"y  c #223543",
"u  c #2B3E42",
"i  c #233A4B",
"p  c #22384B",
"a  c #253052",
"s  c #242E52",
"d  c #34166F",
"f  c #311E7D",
"g  c #192464",
"h  c #312065",
"j  c #263371",
"k  c #453A53",
"l  c #2D4145",
"z  c #2D4348",
"x  c #314441",
"c  c #2E415D",
"v  c #31455F",
"b  c #2E555E",
"n  c #32565D",
"m  c #33595D",
"M  c #2E4260",
"N  c #304662",
"B  c #324766",
"V  c #2A566A",
"C  c #284678",
"Z  c #2E5D70",
"A  c #345A61",
"S  c #39676B",
"D  c #454378",
"F  c #426562",
"G  c #446E63",
"H  c #457165",
"J  c #9C5F37",
"K  c #A27F68",
"L  c #5B957D",
"P  c #5D997E",
"I  c #588E75",
"U  c #66997D",
"Y  c #AE8352",
"T  c #BBAB7A",
"R  c #321D81",
"E  c #1E318A",
"W  c #332185",
"Q  c #262D97",
"!  c #2035A0",
"~  c #2A39AA",
"^  c #3939B1",
"/  c #482E94",
"(  c #4236A2",
")  c #2E479F",
"_  c #3D4394",
"`  c #2F748E",
"'  c #32748E",
"]  c #367C95",
"[  c #347A96",
"{  c #264CA7",
"}  c #334FA4",
"|  c #3554A9",
" . c #3050A6",
".. c #2852B3",
"X. c #3745BC",
"o. c #337BAE",
"O. c #514A9C",
"+. c #484F95",
"@. c #4F4CA0",
"#. c #4C52A9",
"$. c #4558B6",
"%. c #5D71AB",
"&. c #3157CC",
"*. c #3359CD",
"=. c #3253C1",
"-. c #396CC6",
";. c #3760CF",
":. c #3A6DCA",
">. c #3867C5",
",. c #3367D8",
"<. c #316CDD",
"1. c #3C71D7",
"2. c #4166C7",
"3. c #4571C8",
"4. c #368299",
"5. c #3A859B",
"6. c #3C8BBB",
"7. c #3A87BB",
"8. c #3F9CB6",
"9. c #5C9A82",
"0. c #5C9C89",
"q. c #599586",
"w. c #639C97",
"e. c #5EA189",
"r. c #6EBB98",
"t. c #409FBC",
"y. c #6297A7",
"u. c #4BA5AD",
"i. c #4BA5B2",
"p. c #4CACBB",
"a. c #4DA9B5",
"s. c #4FB1BF",
"d. c #51B1BB",
"f. c #69AAA4",
"g. c #64B7A3",
"h. c #65BAA6",
"j. c #66B8AA",
"k. c #6FA3B5",
"l. c #72C29E",
"z. c #6BC6AE",
"x. c #6DC8AF",
"c. c #75CFAB",
"v. c #77CCA6",
"b. c #78D2AB",
"n. c #77D1AB",
"m. c #6DCAB2",
"M. c #6FC1BE",
"N. c #3C8CC3",
"B. c #3B85DD",
"V. c #3B8DD9",
"C. c #498FCE",
"Z. c #4CB2C4",
"A. c #50B4C2",
"S. c #52BDDE",
"D. c #57B2D6",
"F. c #67A6C4",
"G. c #68ABD5",
"H. c #528CFC",
"J. c #6885E7",
"K. c #46B1EB",
"L. c #52BCE2",
"P. c #4EA4FF",
"I. c #46A1EC",
"U. c #59D0DF",
"Y. c #7BCDC4",
"T. c #70DECD",
"R. c #63D4D4",
"E. c #66DBDA",
"W. c #70DFD4",
"Q. c #6CD0CD",
"!. c #6BE2DB",
"~. c #71E1D1",
"^. c #71E1D8",
"/. c #7DE7C8",
"(. c #5ACAEF",
"). c #75E9E0",
"_. c #AD938E",
"`. c #86B38C",
"'. c #C2BB88",
"]. c #87EBBC",
"[. c #A2EBB7",
"{. c #87EEC0",
"}. c #88EDC8",
"|. c #84F4CE",
" X c #8BF7C8",
".X c #87F8D2",
/* pixels */
"                                                                ",
"                                                                ",
"                o X             X o                             ",
"                > u             u u                             ",
"            . > 9.9.x X     . u 9.9.> .     X X                 ",
"            > G m.h.z X     > H n.n.G ,     > u                 ",
"        X u L x.R.i.p X . > 9.n.{.{.c.q.> u 9.9.u X             ",
"        o u g.).(.7.q & - F `.[.}.}.[.`.< u h.m.G ,             ",
"        o y u.(.P.>.0 - ` y.T '.Y.Y.'.Y < w u.E.m.L > X         ",
"        X p 6.I.1.} v n 4.y._._.G.G.Y J 2 b ] Z.~.g.z o         ",
"        . r -.1.j v 9.0.n B %.J.H.2.k 2 U 9.n Z A.i.i o         ",
"        > B | | c G m.m.G M  .*.*. .c H b.r.> q 7.6.p o         ",
"    o l 9.0.B M q.x.R.R.m.9.c 4 4 c q.n.}.r.> 0 -.:.r X         ",
"    o z j.j.> > g.~.p.p.T.x.G , > G b..X|.z.G M | ) 0 O         ",
"    o i a.a.y y i.A.Z V p.R.z.r.r.v.].|.E.R.z.0.B 6 # O         ",
"    o 9 ' 5.m m 5.` - 9 o.L.^.|. X X|.Q.p.d./.l.x . o +         ",
"    + & = A e.0.n - + 6 { B.L.!.|.|.!.a.V S c.r.x X             ",
"    + o X z j.m.G ; @ 6 Q *.V.D.T.^.L.o.- > h.j.z X             ",
"        o i i.E.x.I : $ R ^ &.B.S.S.B.{ % y u.i.i o             ",
"        o 9 ' A.W.m.S a h W ~ &.V.V...E t V 4.[ e o             ",
"            9 Z Z.U.Z.[ a 7 f ^ *...g a o.5.V 9                 ",
"            . 9 ' t.t.' - * D #.X.~ c m 5.4.w .                 ",
"                w p p 9 O , e.k.#.+.w.e.m w                     ",
"                o o o @ < F f.k.O.O.F.j.F ,                     ",
"                    o : L f.%.O./ ( *.C.f.P > X                 ",
"                    o z j.j.+.d d R ~ 3.Q.g.z o                 ",
"                    o i a.i.t $ $ 7 W $.D.i.i o                 ",
"                    . p t.C.p O O $ 8 _ C.6.p o                 ",
"                    X 0 -.-.r O     $ j :.:.0 .                 ",
"                    w C ;.=.0 O     . 0 =.*.C y                 ",
"                o w [ N.,.{ 3 O     O 7 { ,.N.] e o             ",
"                X p 8.K.<.! 3 O     O % ! <.K.8.p o             "
};
