/* XPM */
static char *bcfa96c136fc4c9dec8c6adf5d78fcb25ez0xoRNgGw1gTtE[] = {
/* columns rows colors chars-per-pixel */
"32 32 187 2 ",
"   c None",
".  c #0C000E",
"X  c #0E0313",
"o  c #0D0A1F",
"O  c #100414",
"+  c #110814",
"@  c #120C1B",
"#  c #11061C",
"$  c #16111D",
"%  c #190D2C",
"&  c #1B0A31",
"*  c #16133C",
"=  c #19183F",
"-  c #141224",
";  c #201731",
":  c #1A293C",
">  c #182439",
",  c #252D2F",
"<  c #242E33",
"1  c #263033",
"2  c #2B3B3D",
"3  c #27353A",
"4  c #353937",
"5  c #432D28",
"6  c #534C3D",
"7  c #191C45",
"8  c #181A4A",
"9  c #161744",
"0  c #24134D",
"q  c #2F155D",
"w  c #1C2D43",
"e  c #1D244E",
"r  c #1B2945",
"t  c #1E3345",
"y  c #1F324B",
"u  c #1E2A52",
"i  c #1C2150",
"p  c #1F345E",
"a  c #223543",
"s  c #2E3F40",
"d  c #21364C",
"f  c #233A4B",
"g  c #243A46",
"h  c #242E52",
"j  c #253052",
"k  c #34166F",
"l  c #301E7D",
"z  c #192464",
"x  c #312065",
"c  c #233D66",
"v  c #283573",
"b  c #453A54",
"n  c #2D4145",
"m  c #2D4348",
"M  c #314441",
"N  c #2E425E",
"B  c #264B5E",
"V  c #33595D",
"C  c #33575E",
"Z  c #284962",
"A  c #304663",
"S  c #324963",
"D  c #334568",
"F  c #29556B",
"G  c #284678",
"H  c #345A61",
"J  c #39676B",
"K  c #306173",
"L  c #454378",
"P  c #426562",
"I  c #446E65",
"U  c #467267",
"Y  c #9D6239",
"T  c #A27F68",
"R  c #568E78",
"E  c #5A947C",
"W  c #5D997E",
"Q  c #689B7E",
"!  c #B08655",
"~  c #BBAB7A",
"^  c #321D81",
"/  c #1E318A",
"(  c #332185",
")  c #262D97",
"_  c #2035A0",
"`  c #2D31AE",
"'  c #283EA8",
"]  c #3939B1",
"[  c #482E94",
"{  c #4236A2",
"}  c #2D449D",
"|  c #3D4394",
" . c #2E6F8B",
".. c #32748E",
"X. c #327691",
"o. c #367C95",
"O. c #357D9B",
"+. c #2A4DA7",
"@. c #324FA4",
"#. c #3655AA",
"$. c #2852B3",
"%. c #304BB4",
"&. c #337AAE",
"*. c #48508C",
"=. c #514A9C",
"-. c #474D9E",
";. c #4F4CA0",
":. c #4C52A9",
">. c #4558B6",
",. c #5E71AA",
"<. c #3459CE",
"1. c #3254C4",
"2. c #396CC6",
"3. c #3760CF",
"4. c #3A6DCA",
"5. c #3367D8",
"6. c #316CDD",
"7. c #3A75D7",
"8. c #4166C7",
"9. c #4571C8",
"0. c #36829B",
"q. c #3A859B",
"w. c #3C8CBC",
"e. c #3986B7",
"r. c #3F9CB6",
"t. c #5C9A83",
"y. c #5B9889",
"u. c #639C97",
"i. c #5EA189",
"p. c #63B39C",
"a. c #409FBC",
"s. c #6398A7",
"d. c #4BA4AC",
"f. c #4BA6B2",
"g. c #4DACBC",
"h. c #4DA9B5",
"j. c #4FB1BF",
"k. c #51B0BB",
"l. c #69AAA4",
"z. c #64B7A3",
"x. c #65B9A5",
"c. c #66BCA9",
"v. c #65B1AB",
"b. c #6FA3B5",
"n. c #72C29E",
"m. c #6DC7AD",
"M. c #75CFAC",
"N. c #77D1AC",
"B. c #6BC7B1",
"V. c #6DCAB3",
"C. c #6FC1BE",
"Z. c #3C8CC3",
"A. c #3B8CD9",
"S. c #3E91DF",
"D. c #3C93C3",
"F. c #3C87E0",
"G. c #498FCE",
"H. c #4CB2C5",
"J. c #51B6C3",
"K. c #57B2D6",
"L. c #67A6C4",
"P. c #68ABD5",
"I. c #528CFC",
"U. c #6885E7",
"Y. c #46B1EB",
"T. c #53BEE3",
"R. c #4EA4FF",
"E. c #47A2EC",
"W. c #54C0DF",
"Q. c #59D0DF",
"!. c #7BCDC4",
"~. c #70DECE",
"^. c #63D5D4",
"/. c #65D9D9",
"(. c #6DCBD3",
"). c #72E3D3",
"_. c #73E3D8",
"`. c #7DE7C8",
"'. c #57C5E8",
"]. c #75E9E0",
"[. c #AC8F85",
"{. c #AD9696",
"}. c #87B48D",
"|. c #C1BB88",
" X c #A2EBB7",
".X c #88EEC4",
"XX c #88EEC4",
/* pixels */
"                                                                ",
"                                                                ",
"                X X                                             ",
"                s s                                             ",
"            . 2 t.t.M X         X X         X X                 ",
"            2 I B.x.m X         s s         M s                 ",
"        X 2 E B./.f.f O     X 3 y.t.s X X n t.t.s X             ",
"        O s z.].'.e.y O     2 U M.N.U < @ m c.V.I 3             ",
"        O g d.'.R.2.i O . 2 t.M..X.XN.R 1 t f./.B.W s X         ",
"        X d e.E.9.+.= - r H }. X.XXX Xl.4 >  .H.).x.s X         ",
"        . e 4.7.v * + : X.l.~ |.!.!.|.! 5 o > K J.f.f O         ",
"        2 D #.#.S 2 d F 0.s.[.{.P.L.! Y 6 1 $ r w.w.d O         ",
"    X n t.y.A A y.z.h.0.Z S ,.U.I.9.b 6 Q E , e 4.4.u +         ",
"    O m c.c.2 2 z.).J.0.B c @.<.<.@.N I V.V.I A #.} 7 X         ",
"    O f h.h.a a f.J.K Z 0.O.c 8 8 N y.B.^.^.B.y.S 7 % @         ",
"    + w X.q.C C q...> r e.D.F a 3 I B.~.g.g.`.n.M X O @         ",
"    @ - : H i.i.C > o 7 +.7.Z.d.p.m.^.g.F J M.n.M X             ",
"    @ O X m c.V.I , $ 9 ) <.S.T.)._.T.&.r 2 z.z.m X             ",
"        O d f./.m.R 1 & l ] <.A.T.T.A.+.* a d.f.f O             ",
"        O w X.J.).V.J h x ( ` <.A.A.$./ p F 0.o.t X             ",
"            w F j.Q.H.o.j 0 l { <.$.z p O.q.F w                 ",
"            X w X.r.r.X.> ; L :.%.' N V q.O.t .                 ",
"                t f f r @ 3 t.b.;.;.u.i.V :                     ",
"                X O X $ 4 P l.b.=.=.L.v.J 4                     ",
"                    X 3 E l.,.=.[ { >.G.v.W 2 X                 ",
"                    O n c.c.*.k k ( ` 2.(.z.n O                 ",
"                    O f h.a.c & & 0 ( >.K.d.g O                 ",
"                    O d a.G.a O + % k | G.w.d .                 ",
"                    X e 2.2.h .     ; v 4.4.e .                 ",
"                    t G 3.1.e O     O 7 1.<.G d                 ",
"                O t X.Z.5.+.8 +     + 7 +.5.Z.o.t O             ",
"                O y r.Y.6._ 9 +     + 9 _ 6.Y.r.f O             "
};
