/* XPM */
static char *result[] = {
/* columns rows colors chars-per-pixel */
"32 32 186 2 ",
"   c #0C000E",
".  c #0E0313",
"X  c #100514",
"o  c #110814",
"O  c #120B1B",
"+  c #17121D",
"@  c #190D2C",
"#  c #1B0A31",
"$  c #16133E",
"%  c #141224",
"&  c #201731",
"*  c #1A293C",
"=  c #182539",
"-  c #252D2F",
";  c #273133",
":  c #2C3B3D",
">  c #293538",
",  c #333636",
"<  c #412824",
"1  c #52493B",
"2  c #191B45",
"3  c #17184C",
"4  c #191D4A",
"5  c #161944",
"6  c #24134D",
"7  c #2F155D",
"8  c #1C2C43",
"9  c #1D244E",
"0  c #1B2946",
"q  c #1E3345",
"w  c #1F324B",
"e  c #1E2751",
"r  c #1F345E",
"t  c #223543",
"y  c #2B3E42",
"u  c #233A4B",
"i  c #22384B",
"p  c #253052",
"a  c #242E52",
"s  c #34166F",
"d  c #311E7D",
"f  c #192464",
"g  c #312065",
"h  c #263371",
"j  c #453A53",
"k  c #2D4145",
"l  c #2D4348",
"z  c #314441",
"x  c #2E415D",
"c  c #31455F",
"v  c #2E555E",
"b  c #32565D",
"n  c #33595D",
"m  c #2E4260",
"M  c #304662",
"N  c #324766",
"B  c #2A566A",
"V  c #284678",
"C  c #2E5D70",
"Z  c #345A61",
"A  c #39676B",
"S  c #454378",
"D  c #426562",
"F  c #446E63",
"G  c #457165",
"H  c #9C5F37",
"J  c #A27F68",
"K  c #5B957D",
"L  c #5D997E",
"P  c #588E75",
"I  c #66997D",
"U  c #AE8352",
"Y  c #BBAB7A",
"T  c #321D81",
"R  c #1E318A",
"E  c #332185",
"W  c #262D97",
"Q  c #2035A0",
"!  c #2A39AA",
"~  c #3939B1",
"^  c #482E94",
"/  c #4236A2",
"(  c #2E479F",
")  c #3D4394",
"_  c #2F748E",
"`  c #32748E",
"'  c #367C95",
"]  c #347A96",
"[  c #264CA7",
"{  c #334FA4",
"}  c #3554A9",
"|  c #3050A6",
" . c #2852B3",
".. c #3745BC",
"X. c #337BAE",
"o. c #514A9C",
"O. c #484F95",
"+. c #4F4CA0",
"@. c #4C52A9",
"#. c #4558B6",
"$. c #5D71AB",
"%. c #3157CC",
"&. c #3359CD",
"*. c #3253C1",
"=. c #396CC6",
"-. c #3760CF",
";. c #3A6DCA",
":. c #3867C5",
">. c #3367D8",
",. c #316CDD",
"<. c #3C71D7",
"1. c #4166C7",
"2. c #4571C8",
"3. c #368299",
"4. c #3A859B",
"5. c #3C8BBB",
"6. c #3A87BB",
"7. c #3F9CB6",
"8. c #5C9A82",
"9. c #5C9C89",
"0. c #599586",
"q. c #639C97",
"w. c #5EA189",
"e. c #6EBB98",
"r. c #409FBC",
"t. c #6297A7",
"y. c #4BA5AD",
"u. c #4BA5B2",
"i. c #4CACBB",
"p. c #4DA9B5",
"a. c #4FB1BF",
"s. c #51B1BB",
"d. c #69AAA4",
"f. c #64B7A3",
"g. c #65BAA6",
"h. c #66B8AA",
"j. c #6FA3B5",
"k. c #72C29E",
"l. c #6BC6AE",
"z. c #6DC8AF",
"x. c #75CFAB",
"c. c #77CCA6",
"v. c #78D2AB",
"b. c #77D1AB",
"n. c #6DCAB2",
"m. c #6FC1BE",
"M. c #3C8CC3",
"N. c #3B85DD",
"B. c #3B8DD9",
"V. c #498FCE",
"C. c #4CB2C4",
"Z. c #50B4C2",
"A. c #52BDDE",
"S. c #57B2D6",
"D. c #67A6C4",
"F. c #68ABD5",
"G. c #528CFC",
"H. c #6885E7",
"J. c #46B1EB",
"K. c #52BCE2",
"L. c #4EA4FF",
"P. c #46A1EC",
"I. c #59D0DF",
"U. c #7BCDC4",
"Y. c #70DECD",
"T. c #63D4D4",
"R. c #66DBDA",
"E. c #70DFD4",
"W. c #6CD0CD",
"Q. c #6BE2DB",
"!. c #71E1D1",
"~. c #71E1D8",
"^. c #7DE7C8",
"/. c #5ACAEF",
"(. c #75E9E0",
"). c #AD938E",
"_. c #86B38C",
"`. c #C2BB88",
"'. c #87EBBC",
"]. c #A2EBB7",
"[. c #87EEC0",
"{. c #88EDC8",
"}. c #84F4CE",
"|. c #8BF7C8",
" X c #87F8D2",
".X c None",
/* pixels */
".X.X.X.X.X.X.X.X.X.X.X.X.X.X.X.X.X.X.X.X.X.X.X.X.X.X.X.X.X.X.X.X",
".X.X.X.X.X.X.X.X.X.X.X.X.X.X.X.X.X.X.X.X.X.X.X.X.X.X.X.X.X.X.X.X",
".X.X.X.X.X.X.X.XX . .X.X.X.X.X.X. X .X.X.X.X.X.X.X.X.X.X.X.X.X.X",
".X.X.X.X.X.X.X.X: y .X.X.X.X.X.Xy y .X.X.X.X.X.X.X.X.X.X.X.X.X.X",
".X.X.X.X.X.X  : 8.8.z . .X.X  y 8.8.:   .X.X. . .X.X.X.X.X.X.X.X",
".X.X.X.X.X.X: F n.g.l . .X.X: G b.b.F > .X.X: y .X.X.X.X.X.X.X.X",
".X.X.X.X. y K z.T.u.i .   : 8.b.[.[.x.0.: y 8.8.y . .X.X.X.X.X.X",
".X.X.X.XX y f.(./.6.0 % = D _.].{.{.]._., y g.n.F > .X.X.X.X.X.X",
".X.X.X.XX t y./.L.:.9 = _ t.Y `.U.U.`.U , q u.R.n.K : . .X.X.X.X",
".X.X.X.X. i 5.P.<.{ c b 3.t.).).F.F.U H 1 v ' Z.!.f.l X .X.X.X.X",
".X.X.X.X  e =.<.h c 8.9.b N $.H.G.2.j 1 I 8.b C Z.u.u X .X.X.X.X",
".X.X.X.X: N } } x F n.n.F m | &.%.| p D '.e.: 0 6.5.i X .X.X.X.X",
".X.XX k 8.9.N m 0.z.T.T.n.8.x 3 3 m 0.x.{.e.: 4 :.;.e X .X.X.X.X",
".X.XX l h.h.: : f.!.i.i.Y.z.F > > F v. X}.l.F M } { 4 X .X.X.X.X",
".X.XX u p.p.t t u.Z.C B i.T.l.e.e.c.'.}.R.T.l.9.N 5 % O .X.X.X.X",
".X.XX 8 ` 4.n n 4._ = 8 X.K.~.}.|.|.}.W.i.s.^.k.z   X O .X.X.X.X",
".X.XO % * Z w.9.v = O 5 [ N./.Q.}.}.Q.i.B A x.k.k . .X.X.X.X.X.X",
".X.XO X . l h.n.G - + $ W %.B.A.!.!.K.X.= : g.g.k . .X.X.X.X.X.X",
".X.X.X.XX u u.R.n.P ; # d ~ %.<.A.A.N.[ $ t u.y.u X .X.X.X.X.X.X",
".X.X.X.XX 8 ` Z.E.n.A a g T ! %.B.B. .R r B 3.] w X .X.X.X.X.X.X",
".X.X.X.X.X.X8 C a.I.C.] p 6 d ~ &. .f p X.4.B q .X.X.X.X.X.X.X.X",
".X.X.X.X.X.X  8 ` 7.C.` = & S @...! x n 4.' q   .X.X.X.X.X.X.X.X",
".X.X.X.X.X.X.X.Xq u w = o , q.j.@.O.q.w.n * .X.X.X.X.X.X.X.X.X.X",
".X.X.X.X.X.X.X.X. . . % , D d.d.o.o.D.h.A , .X.X.X.X.X.X.X.X.X.X",
".X.X.X.X.X.X.X.X.X.X. > K d.$.o.^ / 1.V.d.8.: . .X.X.X.X.X.X.X.X",
".X.X.X.X.X.X.X.X.X.X. l h.h.O.s s T ! 2.T.e.l X .X.X.X.X.X.X.X.X",
".X.X.X.X.X.X.X.X.X.XX u p.i.h @ # 6 T #.S.u.i X .X.X.X.X.X.X.X.X",
".X.X.X.X.X.X.X.X.X.XX i r.6.i X X # 7 ) V.6.i X .X.X.X.X.X.X.X.X",
".X.X.X.X.X.X.X.X.X.X. 9 =.;.e o .X.X# h ;.;.e   .X.X.X.X.X.X.X.X",
".X.X.X.X.X.X.X.X.X.Xq V -.*.9 X .X.X  9 *.&.V t .X.X.X.X.X.X.X.X",
".X.X.X.X.X.X.X.XX t ] M.>.[ 2 X .X.Xo 2 [ >.M.' q X .X.X.X.X.X.X",
".X.X.X.X.X.X.X.XX t r.J.,.Q 5 o .X.Xo 5 Q ,.J.7.i X .X.X.X.X.X.X"
};
