/* XPM */
static char *_c3b314091f34f7d8905fa82ffb5b0efeF5RYnZp43eU0oUI[] = {
/* columns rows colors chars-per-pixel */
"32 32 148 2 ",
"   c None",
".  c #5A5362",
"X  c #5D5D6C",
"o  c #654E62",
"O  c #704D61",
"+  c #645364",
"@  c #6B5665",
"#  c #6C5867",
"$  c #645A6A",
"%  c #6A5D6B",
"&  c #735666",
"*  c #735967",
"=  c #7C5966",
"-  c #755D6B",
";  c #7C5B6A",
":  c #536C7E",
">  c #5E6C7D",
",  c #6F626F",
"<  c #78626F",
"1  c #606070",
"2  c #636A7A",
"3  c #6D6C7B",
"4  c #756571",
"5  c #706977",
"6  c #7E6974",
"7  c #716C79",
"8  c #63707E",
"9  c #70737F",
"0  c #835567",
"q  c #8A5764",
"w  c #865768",
"e  c #895668",
"r  c #845C6B",
"t  c #8C5B6B",
"y  c #905D6C",
"u  c #86616D",
"i  c #8D616E",
"p  c #94616E",
"a  c #9F626F",
"s  c #92696F",
"d  c #836572",
"f  c #8E6371",
"g  c #856A74",
"h  c #8C6972",
"j  c #936672",
"k  c #9A6673",
"l  c #926B74",
"z  c #9B6C75",
"x  c #8C727A",
"c  c #967177",
"v  c #9D7276",
"b  c #947579",
"n  c #9B757A",
"m  c #9E7A7C",
"M  c #A36B76",
"N  c #AD6F77",
"B  c #A36D79",
"V  c #AB6F7A",
"C  c #B56C76",
"Z  c #A77476",
"A  c #A1767B",
"S  c #AE717B",
"D  c #A27C7E",
"F  c #A97C7D",
"G  c #B3737D",
"H  c #B6787C",
"J  c #A7827E",
"K  c #576F80",
"L  c #5D7081",
"P  c #657584",
"I  c #6E7785",
"U  c #637E8D",
"Y  c #6D7E8B",
"T  c #707987",
"R  c #997E80",
"E  c #A47E80",
"W  c #AF7F81",
"Q  c #B07F80",
"!  c #D57E82",
"~  c #658A97",
"^  c #6E8994",
"/  c #688B98",
"(  c #718791",
")  c #7B8C95",
"_  c #7997A2",
"`  c #7D99A4",
"'  c #A78682",
"]  c #AB8383",
"[  c #AB8A84",
"{  c #B38586",
"}  c #B28987",
"|  c #BB8F87",
" . c #B48988",
".. c #BA8D8B",
"X. c #A7938B",
"o. c #A9938C",
"O. c #BC9087",
"+. c #BC928C",
"@. c #A79A92",
"#. c #AA9E94",
"$. c #B69E95",
"%. c #BD9D91",
"&. c #BBA296",
"*. c #BBA699",
"=. c #BAAD9F",
"-. c #8099A3",
";. c #BAAFA1",
":. c #C08587",
">. c #CA8885",
",. c #C28E8D",
"<. c #DE8587",
"1. c #C2938D",
"2. c #CB948C",
"3. c #C0998D",
"4. c #C69692",
"5. c #C99792",
"6. c #C79893",
"7. c #CC9A95",
"8. c #D09E93",
"9. c #DC9990",
"0. c #D29F99",
"q. c #E68889",
"w. c #E1968F",
"e. c #E29B92",
"r. c #D2A796",
"t. c #D9A796",
"y. c #D5AB99",
"u. c #D9AA99",
"i. c #EBA296",
"p. c #EEA699",
"a. c #F2AC9D",
"s. c #EDB09E",
"d. c #F5B19F",
"f. c #F3B1A0",
"g. c #F3BDA6",
"h. c #FABFA7",
"j. c #EDC0A7",
"k. c #F6C5AB",
"l. c #FCC3AA",
"z. c #F7C8AC",
"x. c #FBCBAD",
"c. c #F1C4B0",
"v. c #FECEB2",
"b. c #FFD3B4",
"n. c #FED6B9",
"m. c #FFDABC",
"M. c #FFDFC1",
"N. c #FFE2C4",
/* pixels */
"            O.A v +.+.*.&.=.O.u J %.%.%.*.;.%.z A O.            ",
"      e $.c.n.y.r.m.b.n.b.m.b.J x.b.b.b.n.m.m.r.y.n.c.&.q       ",
"    v n.N.n.l.1.2.l.h.h.l.l.l.F s.l.l.l.l.h.l.2.1.l.b.N.n.v     ",
"  O v.m.l.a.q.C y G V V N N N r M N Z N N N G i C q.p.z.m.b.O   ",
"  8.x.x.p.! u @ f v B z z B r $ : . j S B B B j * u ! p.x.v.7.  ",
"v l.v.g.<.# @ u y f i i y f ; % 2 = ; * * & = * + . # q.g.v.l.v ",
"} n.b.a.a < S H ,.,.,.,.,.:.j % T @ M {  . . . .{ M - a a.b.n.[ ",
"u 3.3.H # = p l A R E A R E d % I @ l D D D D D D p = * H 3.1.u ",
"v j.j.e.r 8 2 n ..............g K v +.........+.v 2 8 r e.j.k.v ",
"#.M.x.d.r ^ Y n 7.4.4.4.4.4.7.b K { 7.6.6.4.4.7.n Y ^ r d.x.M.#.",
"X.n.x.a.e z E  .............{ d ( j  .{ } }  . .{ A l e a.x.n.X.",
"X.b.x.d.w % ; * # # # # # & @ 4 ) 0 E E E E J D D ] n e a.x.n.X.",
"J b.b.d.y Z G S S G G S S S N d U F t.7.7.7.7.7.7.7.6.p d.b.b.J ",
"c u.y.>.r i k k k k k k k k j 4 Y i W ] J ] ] ] ] ] A r >.y.u.c ",
"s t.y.>.r A [ ] ] ] ] ] ] ] ] d K j ] ] ] ] ] ] ] ] A u >.y.t.s ",
"o.M.b.d.p 6.7.7.7.7.7.7.7.7.{ 6 1 b ..7.7.7.7.7.7.7.7.p d.b.M.o.",
"X.M.c.a.e R E E E E E W E k I -.7 ` < A E E E E R E c e a.v.m.o.",
"X.M.v.a.0 o & 0 & ; & O ; O 5 -.7 ` 6 W { { {  . . .W t a.c.n.X.",
"W v.M.p.0 r Q Q Q Q Q Q Q M 3 -.7 ` x 7.5.5.5.5.7.7.6.p s.b.v.[ ",
"n g.g.e.w & l f p y j j j 0 3 -.3 -.4 f R j R R c n h r e.g.g.m ",
"r 1.3.H t ......:.........Q 3 -.5 ` 4 r u r 0 e u r # - H 3.1.r ",
"[ m.v.a.y ,.6.4.5.5.4.7.5...3 -.5 ` d V G Q Q Q G G r w a.v.m.[ ",
"@.M.x.a.0 p E E R R R R R t L ` 5 ` 4 i j j l l l c g e s.x.m.#.",
"X.n.x.a.0 R R Q ,...,.:.,...f T 2 I n 1.4.+.+.4.{ m R t a.x.n.X.",
"[ v.x.d.r / U c 7.5.5.7.5.6.4.f K Z 7.4.5.4.5.7.c U ~ 0 a.v.v.' ",
"J v.x.a.r X $ v { ] ] ] ] ] W d P n ] ] ] ] ] ] z $ X r a.v.v.J ",
"r O.+.S r j M z k k k k k a ; % P u ] ] ] ] ] ] ] } E r S O.O.r ",
"D x.z.i.t B G V S S V Q Q Q y % L ] 0.7.7.7.7.7.7.7.5.j i.z.x.J ",
"#.M.z.f.0 + # # # # # & # # + # P r D D D D D D D E n q s.x.N.#.",
"' b.v.a.t { +.....+...........d > # ; r ; ; ; ; ; ; @ w a.v.b.' ",
"j w.9.! t { +.................d > * z V V V Z S S V < r <.9.w.p ",
"# + o @ @ @ # # @ @ # @ # # @ # # # @ @ $ @ @ @ @ $ @ @ + o + # "
};
