/* XPM */
static char *_9848601ae124612a02e49575e585c391NwUBLrdwR5Yyzzg[] = {
/* columns rows colors chars-per-pixel */
"32 32 240 2 ",
"   c None",
".  c black",
"X  c #090005",
"o  c #0B0026",
"O  c #00002D",
"+  c #1E003A",
"@  c #2A002B",
"#  c #2D0036",
"$  c #2C003F",
"%  c #300034",
"&  c #3C003B",
"*  c #3F003C",
"=  c #3F023D",
"-  c #430037",
";  c #006A2D",
":  c #390043",
">  c #3C0042",
",  c #3F134C",
"<  c #381A4C",
"1  c #3B1F4C",
"2  c #3B0C50",
"3  c #2B165B",
"4  c #312242",
"5  c #342444",
"6  c #3E254D",
"7  c #3C274D",
"8  c #3F294E",
"9  c #3F2C4C",
"0  c #3E324F",
"q  c #302257",
"w  c #392854",
"e  c #2F2D63",
"r  c #410041",
"t  c #410F44",
"y  c #401440",
"u  c #401542",
"i  c #422643",
"p  c #412044",
"a  c #432044",
"s  c #462749",
"d  c #43204F",
"f  c #40284B",
"g  c #46354F",
"h  c #463E51",
"j  c #443B56",
"k  c #394454",
"l  c #007E4B",
"z  c #34775A",
"x  c #3A4766",
"c  c #384E60",
"v  c #3A446A",
"b  c #3D5863",
"n  c #34526A",
"m  c #3C516E",
"M  c #375C70",
"N  c #3B5578",
"B  c #3B5778",
"V  c #3B5B79",
"C  c #3D6A6D",
"Z  c #3C6A6E",
"A  c #397A6B",
"S  c #3B617A",
"D  c #3E6779",
"F  c #3B617D",
"G  c #326979",
"H  c #326B7B",
"J  c #356978",
"K  c #316D7D",
"L  c #297F7D",
"P  c #32747F",
"I  c #454B55",
"U  c #444C56",
"Y  c #404459",
"T  c #454C5B",
"R  c #4A5E52",
"E  c #425559",
"W  c #49515F",
"Q  c #4C545E",
"!  c #4A605F",
"~  c #436F5E",
"^  c #576656",
"/  c #526459",
"(  c #43715E",
")  c #4D4362",
"_  c #4E5660",
"`  c #485565",
"'  c #6C5871",
"]  c #416C61",
"[  c #546E62",
"{  c #467C6B",
"}  c #557063",
"|  c #547262",
" . c #55716A",
".. c #476777",
"X. c #4A7A7A",
"o. c #64707F",
"O. c #358B5E",
"+. c #23956B",
"@. c #2B807F",
"#. c #1CA67E",
"$. c #2EAB7A",
"%. c #34AF7D",
"&. c #25B273",
"*. c #418367",
"=. c #42836C",
"-. c #4D8474",
";. c #449373",
":. c #449672",
">. c #449A75",
",. c #449E79",
"<. c #45A178",
"1. c #43A479",
"2. c #6EA779",
"3. c #2A7183",
"4. c #2D7381",
"5. c #297582",
"6. c #2E7984",
"7. c #367782",
"8. c #357883",
"9. c #307A84",
"0. c #357984",
"q. c #347B85",
"w. c #697B87",
"e. c #129199",
"r. c #368086",
"t. c #358882",
"y. c #30818D",
"u. c #2D9F8D",
"i. c #3C9186",
"p. c #34928C",
"a. c #319D8D",
"s. c #228391",
"d. c #208C98",
"f. c #379790",
"g. c #329891",
"h. c #379C92",
"j. c #399A93",
"k. c #0FB487",
"l. c #36A280",
"z. c #3AA48E",
"x. c #2EA49C",
"c. c #3BA492",
"v. c #3CA595",
"b. c #36AD94",
"n. c #39B295",
"m. c #3EB897",
"M. c #39B09B",
"N. c #3FB398",
"B. c #448D8B",
"V. c #549583",
"C. c #739585",
"Z. c #7D939C",
"A. c #48A782",
"S. c #5CA68A",
"D. c #46B683",
"F. c #4CB985",
"G. c #48BC86",
"H. c #46B08E",
"J. c #45B889",
"K. c #47BE88",
"L. c #4ABE8F",
"P. c #41B892",
"I. c #42BD94",
"U. c #42BE95",
"Y. c #4CBD97",
"T. c #41BB9B",
"R. c #46BD9E",
"E. c #49BE9F",
"W. c #77BC81",
"Q. c #52B9A1",
"!. c #3FC486",
"~. c #3BCBA8",
"^. c #4BC685",
"/. c #4CC885",
"(. c #41C189",
"). c #43C58A",
"_. c #42C78C",
"`. c #47C58D",
"'. c #4DC189",
"]. c #49C489",
"[. c #48C48A",
"{. c #48C58B",
"}. c #48C68B",
"|. c #4AC68B",
" X c #48C28E",
".X c #44C88C",
"XX c #46C98F",
"oX c #49C88C",
"OX c #48C98C",
"+X c #49C98D",
"@X c #48CA8C",
"#X c #4BCB8D",
"$X c #49CB8E",
"%X c #4DC88D",
"&X c #49CC8C",
"*X c #5FC289",
"=X c #51C88C",
"-X c #57CA8C",
";X c #5FCF8F",
":X c #50D28E",
">X c #49C794",
",X c #47C891",
"<X c #4BCB90",
"1X c #45C49A",
"2X c #50C692",
"3X c #55CE90",
"4X c #61D291",
"5X c #66D291",
"6X c #68D391",
"7X c #6CDA96",
"8X c #7ED491",
"9X c #72DB9C",
"0X c #8B8B94",
"qX c #97989F",
"wX c #8896A8",
"eX c #969FA0",
"rX c #8BADAE",
"tX c #92ABB8",
"yX c #A1A7A9",
"uX c #B6B4BC",
"iX c #83D793",
"pX c #85D492",
"aX c #8ADA91",
"sX c #8ADE93",
"dX c #8EDF96",
"fX c #8CE99B",
"gX c #90E097",
"hX c #93EF9F",
"jX c #99F3A1",
"kX c #9CF5A1",
"lX c #AEC3CA",
"zX c #B6CACF",
"xX c #C6C7C9",
"cX c #CDCBCD",
"vX c #CAD3D3",
"bX c #D4D0D6",
"nX c #E6F5F0",
"mX c #ECF3F2",
"MX c #EAF7F3",
"NX c white",
/* pixels */
"                                                                ",
"                                                                ",
"                                                                ",
"                                                                ",
"                                                                ",
"                                                                ",
"                                                                ",
"                                                                ",
"                                                                ",
"                                                                ",
"                                                                ",
"                                                                ",
"                                                                ",
"                                                                ",
"                                                                ",
"                      U Q T                   I _ W             ",
"                    + pXjX-Xk , 8 < < 1 6 0 $ 2.kX7XA           ",
"                    8  .^ v.J.D.F.dXgX8X*XiX%.Y.,./ `           ",
"                      > q.P.}.}.|.5X6X;X=X4X.X.Xp.v i           ",
"                      # H.#X}.#X|.(._.).&X$.+.:Xb.F             ",
"                    yX' #.1X,.>.I.[.:.A.k.C.qX&.T.V             ",
"                  . mXxX@.g.2 : p.<.& c r.cXbX; E.B             ",
"                  . vXNX0Xo [ | / E | O qXNXuXl R.N             ",
"                  X rXMXlXq sXhXfX-XaX3 zXnXZ.O.T.V             ",
"                    @ tXo.5 h '.%XG.g 4 w.wXz #XK.#X{           ",
"                    1.-.d y j..X#X,Xf.& s ..n.^.m.I.^.]         ",
"                  * 2X{ e 6.C ~ ( ~ Z 6.3.u.,X#X;.i.~.X.        ",
"                    =.] 3.d.H H K H 7.e.Q.9X!.<Xt.M B.b         ",
"                      t J z.x.q.7.P P 6.S.W.l.M.y.w -           ",
"                        -  Xc.f , p a a : % v s.D               ",
"                        r j.Y                 m n               ",
"                          9 j                 )                 "
};
