/* XPM */
static char *ca5e326162ee4008804f587834216a677zP44cPdxjkOeWx5[] = {
/* columns rows colors chars-per-pixel */
"32 32 184 2 ",
"   c None",
".  c #0D0415",
"X  c #0D0718",
"o  c #0F0819",
"O  c #0F0913",
"+  c #100514",
"@  c #110916",
"#  c #120B1B",
"$  c #190F1B",
"%  c #1E111C",
"&  c #230F1B",
"*  c #24121F",
"=  c #2D161D",
"-  c #2B1A1D",
";  c #130C22",
":  c #170C2F",
">  c #1A0E2F",
",  c #161121",
"<  c #1D1621",
"1  c #1D192B",
"2  c #1B0E34",
"3  c #1C0F38",
"4  c #1D1036",
"5  c #14143B",
"6  c #1E1138",
"7  c #1F1E35",
"8  c #0D0821",
"9  c #2C1720",
"0  c #2D1C20",
"q  c #211C2D",
"w  c #371D25",
"e  c #271F33",
"r  c #362425",
"t  c #382123",
"y  c #3C262A",
"u  c #3D292D",
"i  c #222136",
"p  c #25243A",
"a  c #2C2A3C",
"s  c #2A2535",
"d  c #382F36",
"f  c #342A39",
"g  c #273539",
"h  c #2E3E3F",
"j  c #3B3032",
"k  c #411D2B",
"l  c #45292A",
"z  c #53222A",
"x  c #5B382B",
"c  c #452C31",
"v  c #43363C",
"b  c #48363C",
"n  c #5E313A",
"m  c #64312C",
"M  c #6C332E",
"N  c #6D3C2E",
"B  c #73332F",
"V  c #6C3333",
"C  c #7D3D35",
"Z  c #753833",
"A  c #672B30",
"S  c #5B422A",
"D  c #6E432E",
"F  c #6E4530",
"G  c #614A33",
"H  c #65413A",
"J  c #744438",
"K  c #7A5C39",
"L  c #7E613E",
"P  c #191D4C",
"I  c #281F41",
"U  c #241346",
"Y  c #2D185E",
"T  c #2B175F",
"R  c #1E2D41",
"E  c #1E344F",
"W  c #1D2252",
"Q  c #1F2A52",
"!  c #2B2D45",
"~  c #2C2F49",
"^  c #302E42",
"/  c #20344F",
"(  c #2E314A",
")  c #243C4B",
"_  c #263245",
"`  c #32334C",
"'  c #353952",
"]  c #3C3E55",
"[  c #3B3F5A",
"{  c #311B64",
"}  c #371E76",
"|  c #381E77",
" . c #381E78",
".. c #371E78",
"X. c #3C2366",
"o. c #472C44",
"O. c #463C40",
"+. c #443A48",
"@. c #733440",
"#. c #683845",
"$. c #2E4244",
"%. c #2B4348",
"&. c #3D4057",
"*. c #4C4445",
"=. c #41445B",
"-. c #4B4A5B",
";. c #5F4855",
":. c #565154",
">. c #5A484D",
",. c #784643",
"<. c #70504D",
"1. c #7D5956",
"2. c #684A52",
"3. c #494E65",
"4. c #484F68",
"5. c #594F60",
"6. c #4E536D",
"7. c #595768",
"8. c #4E5670",
"9. c #565C74",
"0. c #515770",
"q. c #655F71",
"w. c #645761",
"e. c #5D647F",
"r. c #656879",
"t. c #766E77",
"y. c #7C757C",
"u. c #7E6267",
"i. c #813F34",
"p. c #864434",
"a. c #844F36",
"s. c #884639",
"d. c #8A5338",
"f. c #81643D",
"g. c #844340",
"h. c #954643",
"j. c #8B5645",
"k. c #985142",
"l. c #815D59",
"z. c #AB5A44",
"x. c #846843",
"c. c #91794D",
"v. c #956253",
"b. c #9C675A",
"n. c #957E53",
"m. c #906151",
"M. c #B86F5D",
"N. c #A55860",
"B. c #88656C",
"V. c #816370",
"C. c #837678",
"Z. c #B26260",
"A. c #A47565",
"S. c #C86356",
"D. c #D37854",
"F. c #C5724A",
"G. c #58927D",
"H. c #C8897B",
"J. c #D08F78",
"K. c #CF916A",
"L. c #1C2D83",
"P. c #3A7A94",
"I. c #2844B4",
"U. c #626A83",
"Y. c #6C7383",
"T. c #747784",
"R. c #757A89",
"E. c #3355C5",
"W. c #3A6DC7",
"Q. c #396EC9",
"!. c #857E85",
"~. c #3C8BBD",
"^. c #5D9B83",
"/. c #52869E",
"(. c #6796A3",
"). c #4CA7B1",
"_. c #4BA9B3",
"`. c #65BAA6",
"'. c #65BDA9",
"]. c #77A3B0",
"[. c #8EAFB7",
"{. c #8EB5B3",
"}. c #CDA18C",
"|. c #CDA286",
/* pixels */
"                                                                ",
"                                                                ",
"                    o o o # o # o o                             ",
"                    0 0 0 9 * * 9 9                             ",
"                X 0 x F F m z z m x 9 o                         ",
"                X 0 F d.p.p.g.g.i.m 9 o                         ",
"                X 9 N p.B i.M.M.s.z * o         + +             ",
"                - l V ,.;.u.J.J.V.+.q +         $.^             ",
"        . . o - x D M ;./.].}.}.].P.R +     + $.^.^.$..         ",
"        h g , r F d.M ;.(.{.}.}.[./._ +     + $.`.'.$.+         ",
"    . $.^.G.g = F a.V ,.A.K.K.K.|.V.f .     + ) ).).) +         ",
"    . $.'.'.%.= D a.Z Z z.F.D.D.S.h.w .     + / ~.~./ +         ",
"    + ) )._.) = N p.p.p.C h.S.S.z.B 9 +     + Q W.W.Q +         ",
"    + / ~.~.E = m p.p.C A V N.Z.h.Z o.f     . W E.E./ @         ",
"    + Q W.Q.Q & z Z p.i.A #.V.B.j.a.C.r.s . . P I.I.P @         ",
"    + W E.E.W & k n J ,.V 2.t.t.1.s.[.T.-.s # 3 L.L.5 @         ",
"    @ P I.I.P % e ' ;.w.C j.t.R.q.7.3.7.T.q.s 8 5 5 ; #         ",
"    @ 5 L.L.5 , e ' 8.q.1.l.y.R.U.4.` +.Y.T.>.r % @ # #         ",
"    # ; 5 5 ; , e ' 6.r.t.T.R.R.U.4.' ~ ] w.A.v.y .             ",
"    # , y y % # q ! 3.9.U.Y.Y.U.9.3.! p b <.A.b.c .             ",
"    X y v.v.u o ; q ! [ 4.8.8.4.] ! 1 u j.v.H u                 ",
"    X c b.b.o.: # ; e ~ ' [ [ ' ~ q # w d.d.r .                 ",
"        c o.X.Y > , e ! E / ( ! ! e ; * t t % o                 ",
"        . 2 } ..6 , d O.S b *.*.O.f 1 ; : : # @                 ",
"        . 4 } ..3 0 G f.L f.c.c.x.G = 2 T Y 2 @                 ",
"        @ 6 } } 3 0 G <.K f.n.n.f.S - 2  . .6 o                 ",
"        @ 6 } } 3 , d d r j :.:.j - $ 4  . .q X                 ",
"        @ 6 } } e , i p i i ( ( p 1 # 2  . .4 @                 ",
"        @ 6 |  .4 , e ` =.] i i &.] < 4  . .2 @                 ",
"        @ 4 { Y 2 , e ' 0.6.^ a =.&.s ! { T U 2                 ",
"            4 > ; , e ` 6.9.6.] p ! [ +.! U { { 4 @             ",
"            @ @ # , i ' 6.U.e.3.q e 4.4.q 2 ..| 6 @             "
};
