/* XPM */
static char *a37cc4194d3f4460d6cf817b465b1714AM6FNe4GVhPvZOKf[] = {
/* columns rows colors chars-per-pixel */
"32 32 188 2 ",
"   c None",
".  c #0B010F",
"X  c #0D0415",
"o  c #0D0719",
"O  c #0F0819",
"+  c #0F0913",
"@  c #100514",
"#  c #110916",
"$  c #120B1B",
"%  c #190E1B",
"&  c #1C111C",
"*  c #230D1B",
"=  c #23121F",
"-  c #2D151E",
";  c #281B1C",
":  c #130D22",
">  c #160C2E",
",  c #190E2F",
"<  c #161122",
"1  c #1E1622",
"2  c #1D192B",
"3  c #1A1628",
"4  c #1B0E34",
"5  c #1C0F38",
"6  c #1D1035",
"7  c #14143B",
"8  c #1E1138",
"9  c #1F1E35",
"0  c #0E0A22",
"q  c #2C1720",
"w  c #2D1C20",
"e  c #211C2D",
"r  c #321F21",
"t  c #3A1B26",
"y  c #271F32",
"u  c #362324",
"i  c #3C262B",
"p  c #222136",
"a  c #2B2633",
"s  c #25243A",
"d  c #2D2A3C",
"f  c #382F37",
"g  c #342A39",
"h  c #2B3A3C",
"j  c #3B3032",
"k  c #411C2B",
"l  c #452A2A",
"z  c #53222A",
"x  c #5B382B",
"c  c #452D31",
"v  c #492F30",
"b  c #473539",
"n  c #5E313A",
"m  c #662D2D",
"M  c #64322C",
"N  c #6C332E",
"B  c #6D3D2E",
"V  c #73332F",
"C  c #6C3333",
"Z  c #7D3D35",
"A  c #753833",
"S  c #662B30",
"D  c #5B422A",
"F  c #6F432F",
"G  c #6E4530",
"H  c #614A33",
"J  c #704A30",
"K  c #76423B",
"L  c #7A5C39",
"P  c #7E613E",
"I  c #191D4C",
"U  c #171A4A",
"Y  c #281F41",
"T  c #241346",
"R  c #2B175F",
"E  c #2E195E",
"W  c #1E2D41",
"Q  c #1F344F",
"!  c #1D2252",
"~  c #1F2A53",
"^  c #2B2D45",
"/  c #2C2F49",
"(  c #302E42",
")  c #20344F",
"_  c #253C4B",
"`  c #2C3148",
"'  c #32334C",
"]  c #37394C",
"[  c #353952",
"{  c #3C3E55",
"}  c #3B3F5A",
"|  c #311B64",
" . c #371E76",
".. c #381E77",
"X. c #371E78",
"o. c #381E78",
"O. c #3C2366",
"+. c #472C44",
"@. c #463C40",
"#. c #483C41",
"$. c #43384B",
"%. c #533C40",
"&. c #733440",
"*. c #683845",
"=. c #2E4244",
"-. c #2B4448",
";. c #3E4056",
":. c #4C4445",
">. c #41445B",
",. c #4B4A5B",
"<. c #5F4855",
"1. c #565154",
"2. c #784643",
"3. c #7D5956",
"4. c #684A52",
"5. c #494E65",
"6. c #484F68",
"7. c #594F60",
"8. c #4E536D",
"9. c #595768",
"0. c #4E5670",
"q. c #565C74",
"w. c #515770",
"e. c #655F71",
"r. c #5D647F",
"t. c #686C78",
"y. c #65687B",
"u. c #766E77",
"i. c #7C757C",
"p. c #71646B",
"a. c #813F34",
"s. c #864434",
"d. c #844F36",
"f. c #884639",
"g. c #895337",
"h. c #81643D",
"j. c #844340",
"k. c #954643",
"l. c #8A5545",
"z. c #8D574E",
"x. c #AB5A44",
"c. c #846843",
"v. c #91794D",
"b. c #986456",
"n. c #957E53",
"m. c #856059",
"M. c #B4714E",
"N. c #B86F5D",
"B. c #B97756",
"V. c #A55860",
"C. c #88656C",
"Z. c #816370",
"A. c #837678",
"S. c #B26260",
"D. c #BE7C60",
"F. c #A07C68",
"G. c #C86356",
"H. c #D37854",
"J. c #C5724A",
"K. c #C07E63",
"L. c #58937D",
"P. c #C8897B",
"I. c #D08F78",
"U. c #CF916A",
"Y. c #1C2D83",
"T. c #3A7A94",
"R. c #2843B3",
"E. c #2742B3",
"W. c #626A83",
"Q. c #6D7384",
"!. c #727784",
"~. c #757A89",
"^. c #3355C5",
"/. c #3A6EC8",
"(. c #857E85",
"). c #3C8CBD",
"_. c #5D9B83",
"`. c #52869E",
"'. c #6796A3",
"]. c #4CA7B1",
"[. c #4CA9B4",
"{. c #65BAA6",
"}. c #65BDA9",
"|. c #77A3B0",
" X c #8EAFB7",
".X c #8EB5B3",
"XX c #CDA18C",
"oX c #CDA286",
/* pixels */
"                                                                ",
"                                                                ",
"                    o O O $ O $ O O                             ",
"                    w r w q = = q q                             ",
"                O w x F B S z z M x q O                         ",
"                o w J g.f.a.j.a.s.m - o                         ",
"                o - B s.V f.N.N.f.z * $                         ",
"                - l N 2.<.p.I.I.Z.$.e @                         ",
"            o w x F N <.`.|.XXXX|.T.W @         X X             ",
"            o r J d.N <.'..XoXoX X`.^ X         h ]             ",
"        X X o r J d.C &.F.I.U.U.P.Z.g X     @ ] L.L.=.#         ",
"        =.h < - F d.A K x.J.H.H.G.k.t o     @ -.}.}.=.#         ",
"    X ] L.L.h - B g.s.s.Z f.G.G.x.Z - X     @ _ ].]._ @         ",
"    @ -.{.}.-.- m s.s.Z S &.V.S.k.K b g     X ) ).).) @         ",
"    @ _ ].[.-.* z V s.s.S *.u.C.l.g.A.t.a . @ ~ /./.~ #         ",
"    @ ) ).).Q % k n K 2.V 2.u.u.3.K  X!.,.a % ! ^.^.! #         ",
"    @ ~ /./.~ % y $.7.4.2.2.i.Q.e.9.7.8.!.e.a U E.E.! #         ",
"    @ ! ^.^.! % p [ 0.y.m.m.i.~.W.6.' $.!.t.a 7 Y.Y.7 #         ",
"    @ I R.R.I : p [ 0.y.u.i.~.~.W.0.' ' >.] 3 0 7 7 : $         ",
"    @ U Y.Y.7 % e ^ >.q.y.Q.Q.W.q.>.^ d #.b b i = # # $         ",
"    $ : 7 7 0 $ % 2 ^ } 6.0.0.6.{ ^ 2 i l.B.K.b.i X             ",
"    O = i l 1 O $ < p ^ [ } ;.[ / y : r d.M.D.b.c X             ",
"    O i b.b.i X o < p ^ / ` ` ` ^ p < % u l v c                 ",
"    o c b.b.+.> $ 1 f @.@.@.:.:.@.g 1 : , , O o                 ",
"        c +.O.R , w H P P P v.v.c.H q 4 R R 4 o                 ",
"        X 4  .X.8 w H P L P n.n.h.D ; 4 o...6 O                 ",
"        + 8  . .8 1 f f u j 1.1.j ; % 6 o...5 o                 ",
"        o 8  . .8 < s s 9 p ` ` s 2 $ 5 ....e #                 ",
"        # 6 ..o.8 < y ' >.{ p p >.] 1 4 o...4 @                 ",
"        # 6 | E 4 : p [ w.8.( d >.>.d Y | R T 6                 ",
"            6 , : < y [ w.q.8.{ d ^ >.$.^ T | | 6 #             ",
"            # # O < y ] 8.r.r.5.2 e 6.8.e 4 X...8 #             "
};
