/* XPM */
static char *f0f42fe5d14c4bdfb88989b947caabc0XOpsHybbpDZQckx2[] = {
/* columns rows colors chars-per-pixel */
"32 32 14 1 ",
"  c #584B57",
". c #3F3851",
"X c #EDA27F",
"o c #FBCA97",
"O c #FFEAB7",
"+ c #FFFAD6",
"@ c #E27F6D",
"# c #D25654",
"$ c #89365C",
"% c #9E3B57",
"& c #AE444E",
"* c #CD7363",
"= c #BF5753",
"- c white",
/* pixels */
" .............................. ",
".XoO+OOoX.@XoOO+OOooX@.XoOO+OoX.",
".oooooooo.@oooooooooo@.oooooooo.",
".oooooooo.@oooooooooo@.oooooooo.",
".oooooooo.@XooooooooX@.oooooooo.",
".XooooooX.@@XooooooX@@.XooooooX.",
".@XooooX@.@@@@@@@@@@@@.@XooooX@.",
".@@@@@@@@.#@@@@@@@@@@#.@@@@@@@@.",
".#@@@@@@#..............#@@@@@@#.",
"................................",
".@@@@@@#...$%&%$.$%&%$..#@@@@@*.",
".XooX@@@...%&&&%.%&&&%..@@@XooX.",
".ooooX@@................@@Xoooo.",
".ooooX@@....$&=**=&$....@@Xoooo.",
".+oooo@@....&&****&&....@@oooo+.",
".Ooooo@@....$&=**=&$....@@ooooO.",
".ooooo@@................@@ooooo.",
".Ooooo@@..$&&&=&.=&&&$..@@ooooO.",
".ooooX@@..&&&&**.*&&&&..@@Xoooo.",
".ooooX@@..$&&&=&.=&&&$..@@Xoooo.",
".XooX@@@................@@@XooX.",
".@@@@@@#....$&&&&&&$....#@@@@@*.",
"................................",
".#@@@@@@#..............#@@@@@@#.",
".@@@@@@@@.#@@@@@@@@@@#.@@@@@@@@.",
".@XooooX@.@@@@@@@@@@@@.@XooooX@.",
".XooooooX.@@XooooooX@@.XooooooX.",
".oooooooo.@XooooooooX@.oooooooo.",
".oooooooo.@oooooooooo@.oooooooo.",
".oooooooo.@oooooooooo@.oooooooo.",
".XoO+OOoX.@XoOoO+OOoX@.XoOO+OoX.",
" .............................. "
};
